<svg width="159" height="25" viewBox="0 0 159 25" fill="none" xmlns="http://www.w3.org/2000/svg">
<path d="M15.0469 1.55505V6.22058C15.0469 6.8641 15.5831 7.40037 16.2267 7.40037H20.8922V7.40037C19.7124 4.93354 17.7282 2.89572 15.2614 1.66231L15.0469 1.55505Z" fill="#0492EB" fill-opacity="0.292884"/>
<path fill-rule="evenodd" clip-rule="evenodd" d="M14.5105 9.54556H19.7659C20.8384 9.54556 21.6964 10.4036 21.6964 11.4761V21.5043C21.6964 22.6305 20.7848 23.5421 19.6586 23.5421H3.99961C2.87345 23.5421 1.96179 22.6305 1.96179 21.5043V2.03782C1.96179 0.911655 2.87345 0 3.99961 0H11.0247C12.0972 0 12.9553 0.858028 12.9553 1.93056V7.99039C12.9553 8.84841 13.6524 9.54556 14.5105 9.54556ZM5.71573 17.8041C5.71573 18.5549 17.9426 18.5549 17.9426 17.8041V16.9997C17.9426 16.2489 17.3527 15.659 16.602 15.659C13.438 16.0344 10.2204 16.0344 7.0564 15.659C6.30563 15.659 5.71573 16.2489 5.71573 16.9997V17.8041Z" fill="#0492EB"/>
<path d="M37.1604 21.2676C40.4722 21.2676 42.6627 19.0771 42.6627 15.2177C42.6627 11.4364 40.7069 9.42847 37.4733 9.42847C35.9347 9.42847 34.7612 10.0022 33.9528 11.1235C34.0311 10.3151 34.0832 9.55886 34.0832 8.90692V4.36945H30.8496V21.0069H33.4834L33.6921 19.3901C34.3961 20.6418 35.5696 21.2676 37.1604 21.2676ZM33.9528 15.5045C33.9528 13.6009 34.8916 12.0362 36.6649 12.0362C38.2295 12.0362 39.2465 13.2358 39.2465 15.3481C39.2465 17.5125 38.2034 18.712 36.5606 18.712C34.9698 18.712 33.9528 17.5125 33.9528 15.5045Z" fill="#2F363F"/>
<path d="M45.4055 19.7291C46.4225 20.7461 47.8568 21.2676 49.7604 21.2676C53.7503 21.2676 56.019 18.9989 56.019 15.322C56.019 11.6711 53.9068 9.42847 50.1777 9.42847C48.1697 9.42847 46.6311 9.9761 45.5359 11.0453C44.4146 12.1405 43.8669 13.6009 43.8669 15.4524C43.8669 17.3039 44.3885 18.712 45.4055 19.7291ZM47.2831 15.3741C47.2831 13.2879 48.3783 12.0101 50.0473 12.0101C51.638 12.0101 52.6029 13.2879 52.6029 15.3741C52.6029 17.3821 51.5598 18.712 49.9169 18.712C48.274 18.712 47.2831 17.4342 47.2831 15.3741Z" fill="#2F363F"/>
<path d="M62.2442 21.2676C63.522 21.2676 64.5129 20.9547 65.217 20.3028L64.3826 17.9036C64.0435 18.1905 63.6002 18.347 63.1048 18.347C62.2442 18.347 61.8009 17.7733 61.8009 16.5998V12.3752H64.9823V9.66317H61.8009V5.85586H58.8541L58.5151 9.32416C58.489 9.55886 58.3587 9.66317 58.124 9.66317H56.8983V12.3752H58.5412V17.1996C58.5412 20.1463 59.8712 21.2676 62.2442 21.2676Z" fill="#2F363F"/>
<path d="M72.588 12.2709C73.8658 12.2709 74.5177 13.0793 74.5177 14.7222V21.0069H77.7513V14.0442C78.1946 12.8707 78.9248 12.2709 79.8897 12.2709C81.1675 12.2709 81.8194 13.0793 81.8194 14.7222V21.0069H85.053V13.992C85.053 10.941 83.6709 9.42847 80.9328 9.42847C79.2899 9.42847 78.0382 10.1065 77.1776 11.4886C76.63 10.1065 75.4826 9.42847 73.7354 9.42847C72.0664 9.42847 70.8669 10.1586 70.1367 11.6451C70.1628 11.4625 70.1628 11.2278 70.1628 10.8888V9.66317H67.19V21.0069H70.4236V14.0963C70.8669 12.8707 71.597 12.2709 72.588 12.2709Z" fill="#2F363F"/>
<path d="M89.4854 8.04637C90.7632 8.04637 91.5715 7.29012 91.5715 6.14271C91.5715 5.02138 90.7632 4.26514 89.4854 4.26514C88.2336 4.26514 87.4252 5.02138 87.4252 6.14271C87.4252 7.29012 88.2336 8.04637 89.4854 8.04637ZM87.8686 21.0069H91.1022V9.66317H87.8686V21.0069Z" fill="#2F363F"/>
<path d="M99.635 12.2709C100.913 12.2709 101.591 13.0011 101.591 14.9047V21.0069H104.824V13.992C104.824 10.941 103.442 9.42847 100.704 9.42847C99.0091 9.42847 97.8096 10.1847 97.1055 11.6972C97.1315 11.5147 97.1315 11.2539 97.1315 10.8888V9.66317H94.1587V21.0069H97.3923V14.1485C97.8878 12.8968 98.618 12.2709 99.635 12.2709Z" fill="#2F363F"/>
<path d="M115.454 15.1916C115.454 17.1474 114.515 18.686 112.742 18.686C111.203 18.686 110.16 17.4603 110.16 15.3481C110.16 13.2358 111.203 12.0101 112.846 12.0101C114.437 12.0101 115.454 13.1836 115.454 15.1916ZM118.739 21.0069V4.36945H115.506V10.7323C114.776 9.87179 113.654 9.42847 112.168 9.42847C108.908 9.42847 106.744 11.6972 106.744 15.4784C106.744 19.2597 108.673 21.2676 111.933 21.2676C113.576 21.2676 114.828 20.6157 115.636 19.3118C115.767 19.9898 115.871 20.5635 115.923 21.0069H118.739Z" fill="#2F363F"/>
<path d="M131.282 13.1054C131.256 10.7845 129.43 9.42847 126.171 9.42847C123.172 9.42847 121.164 10.7584 121.164 12.7664C121.164 13.3662 121.346 13.8616 121.503 14.2528C121.659 14.644 122.181 15.009 122.415 15.2177C122.624 15.4524 123.485 15.7392 123.719 15.8435C123.824 15.8957 124.084 15.9739 124.476 16.0521C124.867 16.1304 125.101 16.1825 125.18 16.2086C125.258 16.2347 125.493 16.2868 125.91 16.3651C126.457 16.4955 126.849 16.5998 127.083 16.678C127.553 16.8345 128.048 17.1996 128.048 17.7472C128.048 18.5034 127.344 18.9207 126.301 18.9207C125.049 18.9207 124.345 18.5295 124.111 17.3821L120.903 17.4603C120.929 20.1724 122.885 21.2676 126.457 21.2676C129.352 21.2676 131.386 20.0681 131.386 17.7993C131.36 16.6258 130.891 15.7653 129.926 15.1655C129.404 14.8787 128.361 14.5397 126.796 14.1746C126.092 14.0181 125.623 13.9138 125.44 13.8356C124.815 13.653 124.502 13.2879 124.502 12.7925C124.502 12.1927 125.18 11.7754 126.249 11.7754C127.527 11.7754 128.179 12.3752 128.179 13.2879L131.282 13.1054Z" fill="#2F363F"/>
<path d="M136.698 21.2937C137.976 21.2937 138.836 20.4592 138.836 19.2075C138.836 17.9819 137.976 17.1474 136.698 17.1474C135.446 17.1474 134.586 17.9819 134.586 19.2075C134.586 20.4592 135.446 21.2937 136.698 21.2937Z" fill="#0492EB"/>
<path d="M150.606 21.2676C151.284 21.2676 151.858 21.0851 152.327 20.7461L152.014 18.5295C151.91 18.5817 151.806 18.6077 151.675 18.6077C151.31 18.6077 151.128 18.3209 151.128 17.7472V13.5226C151.128 10.7845 149.459 9.42847 146.095 9.42847C143.096 9.42847 141.14 10.8627 140.801 13.3922L143.696 13.5487C143.852 12.4795 144.582 11.9319 145.886 11.9319C147.138 11.9319 147.92 12.5578 147.92 13.7313V14.4353H145.782C142.262 14.4353 140.514 15.6349 140.514 18.034C140.514 20.2506 142.183 21.2676 144.504 21.2676C146.251 21.2676 147.477 20.6157 148.207 19.2857C148.416 20.72 149.381 21.2676 150.606 21.2676ZM147.946 16.2086C147.946 17.9819 146.747 18.9467 145.417 18.9467C144.348 18.9467 143.826 18.5295 143.826 17.695C143.826 16.7041 144.608 16.2086 146.147 16.2086H147.946Z" fill="#0492EB"/>
<path d="M155.697 8.04637C156.975 8.04637 157.784 7.29012 157.784 6.14271C157.784 5.02138 156.975 4.26514 155.697 4.26514C154.446 4.26514 153.637 5.02138 153.637 6.14271C153.637 7.29012 154.446 8.04637 155.697 8.04637ZM154.081 21.0069H157.314V9.66317H154.081V21.0069Z" fill="#0492EB"/>
</svg>
